/* XPM */
static char *help[] = {
/* width height num_colors chars_per_pixel */
"    28    28        2            1",
/* colors */
". c #b2b2b2 s backgroundToolBarColor",
"# c #000000",
/* pixels */
"............................",
"............................",
"............................",
"............................",
"........##########..........",
".......##.#.#.#.#.#.........",
"......##.#.#.#.#.#.#........",
".....##.#.#######.#.#.......",
".....#.#.#########.#.#......",
".....##.###########.#.......",
".....#.#.###.#.###.#.#......",
".....##.#####.#####.#.#.....",
".....#.#.###.#.###.#.#.#....",
".....##.#.#.#.#####.#.#.#...",
".....#.#.#.#.#####.#.####...",
".....##.#.#.#####.#.#.......",
"......##.#.#####.#.#.#......",
".......##.#.###.#.#.#.......",
"........##.#####.#.#........",
".........##.#.#.#.#.#.......",
".........#.#.#.#.#.#........",
".........##.###.#...........",
".........#.#####.#..........",
".........##.###.#...........",
"........##.#.#.#.#..........",
"........#.#.#.#.#.#.........",
"............................",
"............................"
};
