/* XPM */
static char *logout[] = {
/* width height num_colors chars_per_pixel */
"    32    32      234            2",
/* colors */
".. c #c7cbc7",
".# c #bebebe",
".a c #bebabe",
".b c #b6babe",
".c c #bec3c7",
".d c #bebeb6",
".e c #b6b6b6",
".f c #c7c7c7",
".g c #a6aeae",
".h c #eff3f7",
".i c #e7ebef",
".j c #cfd3d7",
".k c #cfcfcf",
".l c #d7d7d7",
".m c #d7dbd7",
".n c #dfdfd7",
".o c #dfe3e7",
".p c #d7d7cf",
".q c #717979",
".r c #515151",
".s c #a6aaae",
".t c #a6aaa6",
".u c #9ea6a6",
".v c #9ea2a6",
".w c #9e9ea6",
".x c #9e9e9e",
".y c #969a9e",
".z c #969696",
".A c #8e9296",
".B c #8e8e8e",
".C c #868686",
".D c #798286",
".E c #868a86",
".F c #969a96",
".G c #515959",
".H c #494d49",
".I c #8e928e",
".J c #9ea29e",
".K c #414141",
".L c #494949",
".M c #383c38",
".N c #414541",
".O c #868a8e",
".P c #8e8e9e",
".Q c #86869e",
".R c #797d79",
".S c #8e8686",
".T c #aeb2ae",
".U c #aeb6b6",
".V c #797d8e",
".W c #717571",
".X c #867d79",
".Y c #697571",
".Z c #697171",
".0 c #b6b2be",
".1 c #efebdf",
".2 c #e7e7df",
".3 c #e7e3d7",
".4 c #dfdbd7",
".5 c #dfdbcf",
".6 c #d7d3be",
".7 c #d7cfc7",
".8 c #cfcfc7",
".9 c #cfcbbe",
"#. c #cfc7be",
"## c #c7c7be",
"#a c #c7c3b6",
"#b c #c7beb6",
"#c c #bebab6",
"#d c #beb6ae",
"#e c #b6aea6",
"#f c #968e8e",
"#g c #797979",
"#h c #383838",
"#i c #dfd7cf",
"#j c #beb2ae",
"#k c #aea6a6",
"#l c #a69e96",
"#m c #616161",
"#n c #867979",
"#o c #797571",
"#p c #696979",
"#q c #696d71",
"#r c #616561",
"#s c #595969",
"#t c #595551",
"#u c #515571",
"#v c #494969",
"#w c #414559",
"#x c #494551",
"#y c #968a8e",
"#z c #b6b2ae",
"#A c #8e8a86",
"#B c #9e9a96",
"#C c #717586",
"#D c #616579",
"#E c #515171",
"#F c #494d79",
"#G c #494971",
"#H c #96928e",
"#I c #303430",
"#J c #514d49",
"#K c #9e9eb6",
"#L c #717196",
"#M c #71718e",
"#N c #515586",
"#O c #494996",
"#P c #494986",
"#Q c #49458e",
"#R c #414161",
"#S c #202420",
"#T c #494541",
"#U c #797996",
"#V c #aeaab6",
"#W c #71759e",
"#X c #595996",
"#Y c #515596",
"#Z c #383c9e",
"#0 c #414596",
"#1 c #595986",
"#2 c #696561",
"#3 c #383c51",
"#4 c #202020",
"#5 c #595d59",
"#6 c #696d8e",
"#7 c #61618e",
"#8 c #69699e",
"#9 c #41459e",
"a. c #616596",
"a# c #4949a6",
"aa c #5959a6",
"ab c #696db6",
"ac c #494da6",
"ad c #4949b6",
"ae c #383886",
"af c #a6a2b6",
"ag c #303449",
"ah c #303038",
"ai c #201c18",
"aj c #515551",
"ak c #616961",
"al c #4145b6",
"am c #5151b6",
"an c #7175ae",
"ao c #8e8eb6",
"ap c #6165ae",
"aq c #595d8e",
"ar c #383c69",
"as c #303051",
"at c #303030",
"au c #181818",
"av c #282c28",
"aw c #8682ae",
"ax c #dfdbbe",
"ay c #303471",
"az c #181410",
"aA c #282828",
"aB c #596159",
"aC c #495149",
"aD c #e7dfd7",
"aE c #8e8ea6",
"aF c #383479",
"aG c #282c61",
"aH c #282c41",
"aI c #282851",
"aJ c #aeb2b6",
"aK c #5155ae",
"aL c #282c8e",
"aM c #202449",
"aN c #383c49",
"aO c #d7d7be",
"aP c #e7e3be",
"aQ c #9692ae",
"aR c #282871",
"aS c #aeaea6",
"aT c #696d69",
"aU c #595da6",
"aV c #202486",
"aW c #282c79",
"aX c #202049",
"aY c #868279",
"aZ c #616969",
"a0 c #7979b6",
"a1 c #282896",
"a2 c #30308e",
"a3 c #30348e",
"a4 c #201c8e",
"a5 c #797971",
"a6 c #595979",
"a7 c #7171a6",
"a8 c #101441",
"a9 c #61619e",
"b. c #303496",
"b# c #181861",
"ba c #181451",
"bb c #101038",
"bc c #797171",
"bd c #515561",
"be c #383879",
"bf c #303069",
"bg c #202079",
"bh c #181c69",
"bi c #100c28",
"bj c #717169",
"bk c #101010",
"bl c #494d96",
"bm c #494d69",
"bn c #181c49",
"bo c #a6a29e",
"bp c #696961",
"bq c #ae7969",
"br c #a68a86",
"bs c #a66d69",
"bt c #9e7d69",
"bu c #9e7969",
"bv c #8e9659",
"bw c #96ba20",
"bx c #8e9a38",
"by c #716d69",
"bz c #716969",
"bA c #516961",
"bB c #8e8661",
"bC c #9e968e",
"bD c #867971",
"bE c #595951",
"bF c #415151",
"bG c #080808",
"bH c #080400",
"bI c #100c08",
"bJ c #696159",
"bK c #696969",
"bL c #968e86",
"bM c #dfdfdf",
"bN c #515951",
/* pixels */
".....#.#.#.#.a.b.#.#.#.c.#.#.#.#.#.c.c.c.b.e.e.e.b.#.c.f.f.#.a.g",
".b.h.j.j.j.k.l.l.j.j.l.l.l.l.l.l.o.n.n.m.p.m.l.m.m.m.n.n.n.m.b.q",
".e.m.A.z.z.A.I.B.A.z.z.z.F.F.z.A.z.A.B.B.D.C.I.I.z.x.y.I.B.I.B.K",
".e.m.I.A.z.z.A.I.A.A.I.A.A.z.I.B.I.B.B.E.D.D.B.B.F.y.B.C.I.y.E.M",
".b.m.z.I.z.I.P.O.O.O.C.O.C.C.C.C.B.E.D.C.R.D.C.O.A.O.D.I.F.F.C.M",
".U.l.x.A.B.O.O.D.D.C.C.C.R.q.D.C.C.V.V.q.q.V.D.C.O.D.C.P.z.z.B.K",
".0.l.x.P.D.D.1.1.1.1.2.3.n.n.5.m.6.7.9.8###a.d#c#e.y#g.q.B.x.B#h",
".U.l.F.B.X.p.1.1.1.i.2.3.o.4#i.m.j.j.9#.#a#b#c#c#e#k.D#m.O.v.C#h",
"#z.p.A.B.D.1#g#A#B.z#g.V#C#p#D#D#E#F#G#v#v#x#x#x.K#h#H#I.Z.D.Y#I",
".e.j.O.O#g.1#A.e.e#K#p#D#M#u#N#G#P#P#Q#Q#Q#G#R#x#h#h.z#S#m.q.Y#I",
".e.j.O.B#g.1#U#k#6#7#Y#9a.a#a#aaabaaacad#0#0af#uagah#yaiaj#qak#I",
".e.j.B.A.R.2.q#K#W#8#Xacada#aladanaf#Kaoadaeaqarasat#Aau.L#mak#I",
".U.j.I.A.R.3.QaEawapaaada##8adaladad#K.f.9af#9aFaHaI.Saz.K#m.R.M",
"aJ.k.A.z.WaD#8#U#Xac#9adab.0aladalalaa.a.p#VaLaLaIaM.Saz.N#r.qaN",
"aS.8.z.yaT.4#L#Laaacala#adalaUadadadad##.2.0#ZaVaIaXaYaz#T#maT#I",
"aJ.k.z.IaZ.4#1#X#0#Qa#a#adadabamadada0aOaP##ada1ayaM.Xaz#T#m.Z#I",
".d.l.A.O.Y.l#1#1aca##9adadadamadadal#iaxaO.c#Za1.a#E#naz.N#maT#I",
".c.j.I.C.Z.6#N#Na##Qa#a#adadananab#Vax.9#.#Va1a1.QaM.Raz.L#m.Z#h",
".c.l.I.D.q.7a6#E#Na.#Q#O#Qada0#.aOax.6.9a7aKa4a4#Ea8#oaz#T#m.Z#I",
".c.p.B.C.q.9#s#s#u#U#Q#Q#9#9#9a9a0aw#W#8b.a1a4b#babbbcaz.N#r.Z#I",
".f.p.B.O.V#.#t.Gbd#E#s#E#O#P#O#O#F#P#G#u#E#F#P#Pbmbibcbk.K#maT#h",
".c.m.O.O.R#..z.H.H#T.H#wararbfbfaIaMaMaXbnbna8a8bi#rbcbk.K#m.Y#h",
"...m.B.O.Rbp#e#e.s#k#l#lbr#Bbsbt#Hbs.S#y.ZaYbwbxbybz#tbk.M#m.Y#h",
".f.m.I.B.DaTbAbB#l#BbC.z#H#f#A#yaY.DaY#n#oa5bj#2bEbFbGbk.M.GaZat",
"##.m.z.I.C.X#m#JahaA.L#5.r.r#5ajbpbJbEbKbE#5bIbkazazau#4.N#5.Z#h",
".f.m.z.P.E.CaTaB.CbL#f#A.S.S.S.X.Xa5#o#objbz#5#5ai#4aA#IajaT.q#I",
".c.m.z.A.B.I.R.Waj.NaAaibkazbkbkbkbkbkazazauai#S#I.M.H#t.W.C.R#h",
".c.m.z.z.B.I.E.X#5.H#hat#S#S#S#4#S#SaAaAaAaAah#h.L.r#mbK.D.B.D#h",
".fbM.y.F.A.z.x.z.D.Wbpak#r#rbp#m#m#r#r#2#rbpbpaT.W.q.E.O.A.z.C.M",
".c.m.y.z.z.x.v.x.B.C.qa5.R.R.C.C.X.R.q.C.D.D.D.D.S.B.A.z.x.x.C.M",
"...k.I.I.J.t.v.F.B.E.E.B.z.z.y.J.B.I.I.D.R.R.R.R.R.V.D.C.D.D.Z.M",
".d#Kat#I#h.M#IaAaA#S#S#SaAaAaAaAaAaAaA#h#Iag#h#I#I#h#h#h#I#IavaA"
};
