/* XPM */
static char * gnus_summary_mail_copy_up_xpm[] = {
"32 32 51 1",
" 	c None",
".	c #1E2022",
"+	c #898889",
"@	c #D5D7D4",
"#	c #C0C4C6",
"$	c #45434A",
"%	c #ACACAD",
"&	c #4F5154",
"*	c #A0A4A4",
"=	c #E6F2EC",
"-	c #6D5C62",
";	c #9B9C9D",
">	c #71676A",
",	c #E8EAED",
"'	c #CAAAA4",
")	c #D7C2C8",
"!	c #AD8C8C",
"~	c #BABCBF",
"{	c #909090",
"]	c #7A7374",
"^	c #F6E6C4",
"/	c #9E7A84",
"(	c #BDB1B6",
"_	c #E5E0E3",
":	c #7B7A7B",
"<	c #FEEDCC",
"[	c #B3B6B9",
"}	c #B59CA8",
"|	c #A25A5C",
"1	c #D5C6D1",
"2	c #763E44",
"3	c #969696",
"4	c #B9A6A7",
"5	c #CCCED3",
"6	c #785058",
"7	c #E4CFD0",
"8	c #F6DADC",
"9	c #B0B2B4",
"0	c #D6D0D1",
"a	c #C9C7C9",
"b	c #A7A6AA",
"c	c #F7EDD9",
"d	c #907684",
"e	c #9E868C",
"f	c #DED1D1",
"g	c #FCF8FB",
"h	c #EBE6E8",
"i	c #AE9C9C",
"j	c #DFD8DB",
"k	c #CFBAB5",
"l	c #818082",
":l:llll++++++{{{{{333;;;;;;****b",
"::lll++l+++{{+{{{3{333;;;**;**bb",
"llllll+++++{{{{3333;3;;;;;***b%b",
":llll+++++{{{{{{]{33;;;;****bbb%",
"ll+l++++{{+{{3{{^]{3;;*;i*b*bb%%",
"ll+l+++++{{{{{+<^8]3;;;***bbbb%%",
"+l+++++{+{{3{3<4<<^];*l:b*b%%b%%",
"l++++{+{{{{{3^fk%kkk3[+>;bbb%9%9",
"+++++{{{{{+{<4#3al3_ggg;l%%%b9%9",
"l+{+{+{{33{<k4{~%~gggggg>bb%9%99",
"+++{{+{{{;<@%>9^ggg891gg@l9%999[",
"+{+{{{3{{^!30@ggghij,gj#g:%99999",
"{+{{{{{+7e;f^^j7!(7j)}'8j(:%9[[[",
"+{{{{3+!iii!{d-2//>>6/d-6d-*[[[~",
"{{{l@@=cc^,_^h____j8_jj@jj_*b[[~",
"{{{l('4ik,h,h___j__jjfj5kk#b&%[~",
"{{{l4!)aeh___h___j_@jf5'!|!*.]~~",
"{33:)411}}@hh___j_jfff7'$2!*.:~~",
"333ljfjj11______j@fff7f}&&3*.]~~",
"33;l,h,hh___jj@_jjjff00fj01;.:~#",
"33;l,chhh]%1{+%3[jjf@0@000@*.:~#",
";3;l,hhhh%f~#90~1j[@0005050*.]##",
";3;+,hh__3;l{>l3;e+#f@050a0*.:##",
";;*lhh_h_9+a%a41~#kl~(%055j*.:#a",
";;*l_h_,_;#%;+[l(l(:{{%aaa0*.:##",
";;;+h_h_____jfffff@05051a#@;.:aa",
"***+_____jj_jjjf00000a0010j*.:aa",
";;*+=,,,,==,,,,,,,,,h=,,,,,*.:55",
"**b{$........................:a5",
"****+-$$$$$$$$$$$$$$$$$$$$$$${55",
"**b%b%9%999[[[~[~~~~~~#####a5555",
"bbbb%%%9%99[[~[~~~~#######a55555"};
