/* XPM */
static char *url-around[] = {
/* width height num_colors chars_per_pixel */
"    32    32      174            2",
/* colors */
".. c #3f281f",
".# c #302820",
".a c #30282f",
".b c #303720",
".c c #3f372f",
".d c #3f3f2f",
".e c #203740",
".f c #2f3f50",
".g c #3f4f30",
".h c #3f4740",
".i c #304750",
".j c #3f4f50",
".k c #3f5f40",
".l c #30575f",
".m c #3f5f5f",
".n c #2f4f60",
".o c #3f5760",
".p c #305f7f",
".q c #3f5f70",
".r c #3f676f",
".s c #50301f",
".t c #403f2f",
".u c #503f20",
".v c #5f3720",
".w c #5f3820",
".x c #603f1f",
".y c #603820",
".z c #6f3f20",
".A c #404730",
".B c #4f4f30",
".C c #40582f",
".D c #504f30",
".E c #50573f",
".F c #505f3f",
".G c #5f573f",
".H c #406730",
".I c #4f673f",
".J c #50673f",
".K c #5f673f",
".L c #5f6f3f",
".M c #70401f",
".N c #70471f",
".O c #7f471f",
".P c #6f472f",
".Q c #6f4f3f",
".R c #7f4820",
".S c #40574f",
".T c #4f574f",
".U c #4f5f5f",
".V c #505f40",
".W c #5f5740",
".X c #5f5f4f",
".Y c #40576f",
".Z c #4f5f60",
".0 c #505f6f",
".1 c #5f6740",
".2 c #5f704f",
".3 c #5f7840",
".4 c #506760",
".5 c #5f6f6f",
".6 c #50777f",
".7 c #605f50",
".8 c #705f4f",
".9 c #606740",
"#. c #6f6f40",
"## c #60675f",
"#a c #607740",
"#b c #607f4f",
"#c c #60775f",
"#d c #706750",
"#e c #706f50",
"#f c #606f7f",
"#g c #706f60",
"#h c #707f60",
"#i c #707770",
"#j c #7f7f7f",
"#k c #406780",
"#l c #707f90",
"#m c #6f875f",
"#n c #708850",
"#o c #6f977f",
"#p c #7f8760",
"#q c #708f7f",
"#r c #7f9760",
"#s c #408fb0",
"#t c #6f8f90",
"#u c #7f8780",
"#v c #7087af",
"#w c #5097cf",
"#x c #4fa0df",
"#y c #5fa0cf",
"#z c #5fafe0",
"#A c #6098c0",
"#B c #6fa8e0",
"#C c #60b0f0",
"#D c #6fb8ff",
"#E c #7fb8f0",
"#F c #7fc0e0",
"#G c #7fc0f0",
"#H c #80481f",
"#I c #8f4f1f",
"#J c #90501f",
"#K c #90571f",
"#L c #9f501f",
"#M c #804f20",
"#N c #8f572f",
"#O c #a0581f",
"#P c #af581f",
"#Q c #af5f1f",
"#R c #b0601f",
"#S c #af672f",
"#T c #b06820",
"#U c #b06f20",
"#V c #bf703f",
"#W c #806050",
"#X c #cf6f1f",
"#Y c #c07730",
"#Z c #8f8f6f",
"#0 c #90976f",
"#1 c #8f8f80",
"#2 c #8f8f90",
"#3 c #809780",
"#4 c #8f979f",
"#5 c #90979f",
"#6 c #9fa890",
"#7 c #8fa0af",
"#8 c #8fb0b0",
"#9 c #90a0af",
"a. c #a0b89f",
"a# c #afb0a0",
"aa c #a0b0b0",
"ab c #afb8bf",
"ac c #b0b8bf",
"ad c #8fa8cf",
"ae c #8fb8df",
"af c #9fb0c0",
"ag c #9fb8d0",
"ah c #80b0ef",
"ai c #80b8e0",
"aj c #a0b8c0",
"ak c #bfc08f",
"al c #bfd8bf",
"am c #80c8ff",
"an c #8fc8ff",
"ao c #9fc7ef",
"ap c #90d0ff",
"aq c #9fe0ff",
"ar c #afc0cf",
"as c #bfc0c0",
"at c #b0c8d0",
"au c #afc8e0",
"av c #afd0ef",
"aw c #b0d0ef",
"ax c #bfd0ef",
"ay c #bfdfff",
"az c #a0efff",
"aA c #afe0ff",
"aB c #b0efff",
"aC c #c0b0bf",
"aD c #cfc0bf",
"aE c #cfc8df",
"aF c #c0d0c0",
"aG c #d0d8df",
"aH c #cfe0e0",
"aI c #cfe0ff",
"aJ c #cfe8ff",
"aK c #cff7ff",
"aL c #d0e8e0",
"aM c #e0e8ff",
"aN c #e0ffff",
"aO c #eff0f0",
"aP c #f0f8ff",
"aQ c #ffffff",
"aR c #b2c0dc",
/* pixels */
"aRaRaRaRaRaRaRaRaRaRaRaRaRaRaRaR..aRaRaRaRaRaRaRaRaRaRaRaRaRaRaR",
"aRaRaRaRaRaRaRaRaRaRaRaRaRaRaRaR..aRaRaRaRaRaRaRaRaRaRaRaRaRaRaR",
"aRaRaRaRaRaRaRaRaRaRaRaRaRaR.T.Z.h.h#jaRaRaRaRaRaRaRaRaRaRaRaRaR",
"aRaRaRaRaRaRaRaRaRaRaRaRaRabalayaIau#u#laRaRaRaRaRaRaRaRaRaRaRaR",
"aRaRaRaRaRaRaRaRaRaRasaQaOaJamaiaraHajaf#7#uaRaRaRaRaRaRaRaRaRaR",
"aRaRaRaRaRaRaRaRaRaRaQaQaKaA#Gaiarataf#8#9#2#faRaRaRaRaRaRaRaRaR",
"aRaRaRaRaRaRaRaRa#aQaLaNanamaiaiajaa#4#7#9#2#i.2aRaRaRaRaRaRaRaR",
"aRaRaRaRaRaRaRaRaQaQaQaNam#G#Fai#5#Z#m#u#5#j.7.F.CaRaRaRaRaRaRaR",
"aRaRaRaRaRaRaR#4aPaQ#6aNaiaiaxaa#r#r.I.J.F.1.C.I.F.IaRaRaRaRaRaR",
"aRaRaRaRaRaR#wavaNaPaIaMaoavar#p#n#3.J.J.I.I.C.F.F.FaRaRaRaRaRaR",
"aRaRaRaRaRaR#FazaqaAaIawaFaE#a#m#3#2.I.J.C.C.F.C.I.F.CaRaRaRaRaR",
"aRaRaRaRaRaRapazaqaBaoauabaE#1#3#2#j.I.I.H.C.J.F.1.J.BaRaRaRaRaR",
"aRaRaRaR#H###Gap#D#zaca##h#1.L.K.3.L.I.C.K.F.K.J.F.L.V.d.saRaRaR",
"aRaR#J#I#X.i#Dam#C#zagac#p#b.L.9.K.L.L.F.1.C.K.8.K.L.9.b.x.vaRaR",
"aRaR#X#R#I.h#Bah#x#x#t#t#n#..X.X.V.F.V.4.Z.0.F##.K.K#d.c.O.M.zaR",
"aRaR#R#R#I.O#v#B#w#w.6#a#h.6.6.0.6.7.X.m####.W.X.F.W.c.P.O.O.uaR",
"aRaR.y#J#Q#R#P#L#V.r.Z.Z.m.Z.m.j.r.m.V.X.G.G.h#N#M.R.R.O.M.x.#aR",
"aRaRaR.w.R#L#Q#Q#R#T#Y#U#Y#Y#U#U#T#R#R#Q#Q#Q#K#K#J#M.R.M.v..aRaR",
"aRaRaRaRaRaR.P.z.O.M.O.R.M.M.M.M.M.M.M.M.M.M.R.R.P.z.z.#aRaRaRaR",
"aRaRaRaRaRaR.Y#W.P.P.w.w.z.M.z.z.z.z.z.z.z.z.w.z.i.q..aRaRaRaRaR",
"aRaRaRaRaRaRaRaR#k.q.V.1.9.L.9.9.9.V.L.9.W.9.0.q.iaRaRaRaRaRaRaR",
"aRaRaRaRaRaRaRaR.r.p.r.r.m.4.V.V#.#g.V.V.S.l.r.raRaRaRaRaRaRaRaR",
"aRaRaRaRaRaRaRaRaRaR#k.q.q.q.5.X.9.7.W.E.l.n.faRaRaRaRaRaRaRaRaR",
"aRaRaRaRaRaRaRaRaRaR.l.Y.p.q.r.7#d.9.U.m.o.oaRaRaRaRaRaRaRaRaRaR",
"aRaRaRaRaRaRaRaRaRaRaRaR.M.M#Q#I.v.z.N.#.#aRaRaRaRaRaRaRaRaRaRaR",
"aRaRaRaRaRaRaRaRaRaRaR#Q#P#I#R#I.y.z.N...a.aaRaRaRaRaRaRaRaRaRaR",
"aRaRaRaRaRaRaRaRaRaR#R#X#R#I#Q#J.w.w.x...#.#.#.vaRaRaRaRaRaRaRaR",
"aRaRaRaRaRaRaRaRaR.M#X#R#R#Q...O.z.y.....#.#....aRaRaRaRaRaRaRaR",
"aRaRaRaRaRaRaRaRaR.M#R#R#R#R.O.M.s.s.s.........saRaRaRaRaRaRaRaR",
"aRaRaRaRaRaRaRaRaR.w#I#P#R#R#P#H.w.v.s.........saRaRaRaRaRaRaRaR",
"aRaRaRaRaRaRaRaRaRaR.w.M#L#P#Q#P#L.M.x.s.s.v.waRaRaRaRaRaRaRaRaR",
"aRaRaRaRaRaRaRaRaRaRaRaR.y.M#H#H.R.M.x.v.w.waRaRaRaRaRaRaRaRaRaR"
};
